{"asset":{"version":"2.0","generator":"Blockbench 4.10.4 glTF exporter"},"scenes":[{"nodes":[23],"name":"blockbench_export"}],"scene":0,"nodes":[{"name":"plane","mesh":0},{"translation":[0.3125,0.3125,5.8125],"name":"cone","mesh":1},{"rotation":[0.27059805007309845,0.2705980500730985,0.6532814824381882,0.6532814824381883],"translation":[1.1875,0.375,5.625],"name":"plane","mesh":2},{"translation":[0,-0.25,5],"name":"beveled_cuboid","mesh":3},{"translation":[-3.0625,0.3125,6.6875],"name":"cone","mesh":4},{"rotation":[0.06540312923014306,0,0,0.9978589232386035],"translation":[-0.0625,-0.1875,5.4375],"name":"beveled_cuboid","mesh":5},{"translation":[-3.625,-0.125,6.5],"name":"beveled_cuboid","mesh":6},{"translation":[-0.625,0.3125,4.8125],"name":"cone","mesh":7},{"translation":[-4,0.3125,7.1875],"name":"cone","mesh":8},{"translation":[-5.125,0.3125,6.5],"name":"cone","mesh":9},{"rotation":[0,0.3826834323650898,0,0.9238795325112867],"translation":[1.1875,0.00625,5.625],"name":"plane","mesh":10},{"translation":[0,-0.0625,-2],"name":"cuboid","mesh":11},{"rotation":[0,0.23768589232617307,0,0.9713420698132614],"translation":[0.4375,-0.125,-1.875],"name":"cuboid","mesh":12},{"translation":[-0.3125,-0.75,-0.3125],"name":"cube","mesh":13},{"translation":[-0.375,-0.4375,-0.375],"name":"top-stone","mesh":14},{"name":"big-roof","mesh":15},{"translation":[-0.0625,-0.75,-0.5],"name":"cube","mesh":16},{"translation":[-0.3125,-0.75,0.6875],"name":"cube","mesh":17},{"translation":[0,-0.3125,1.1875],"name":"small-roof","mesh":18},{"translation":[0.3125,0.75,0.3125],"name":"house","children":[13,14,15,16,17,18]},{"rotation":[0,0.3826834323650898,0,0.9238795325112867],"translation":[0,-0.36875,0],"name":"plane","mesh":19},{"rotation":[0,0.3826834323650898,0,0.9238795325112867],"name":"wizard","mesh":20},{"translation":[0.4375,0.375,2.3125],"name":"wizard","children":[20,21]},{"children":[0,1,2,3,4,5,6,7,8,9,10,11,12,19,22]}],"bufferViews":[{"buffer":0,"byteOffset":0,"byteLength":48,"target":34962,"byteStride":12},{"buffer":0,"byteOffset":48,"byteLength":48,"target":34962,"byteStride":12},{"buffer":0,"byteOffset":96,"byteLength":32,"target":34962,"byteStride":8},{"buffer":0,"byteOffset":128,"byteLength":12,"target":34963},{"buffer":0,"byteOffset":140,"byteLength":1344,"target":34962,"byteStride":12},{"buffer":0,"byteOffset":1484,"byteLength":1344,"target":34962,"byteStride":12},{"buffer":0,"byteOffset":2828,"byteLength":896,"target":34962,"byteStride":8},{"buffer":0,"byteOffset":3724,"byteLength":228,"target":34963},{"buffer":0,"byteOffset":3952,"byteLength":48,"target":34962,"byteStride":12},{"buffer":0,"byteOffset":4000,"byteLength":48,"target":34962,"byteStride":12},{"buffer":0,"byteOffset":4048,"byteLength":32,"target":34962,"byteStride":8},{"buffer":0,"byteOffset":4080,"byteLength":12,"target":34963},{"buffer":0,"byteOffset":4092,"byteLength":1152,"target":34962,"byteStride":12},{"buffer":0,"byteOffset":5244,"byteLength":1152,"target":34962,"byteStride":12},{"buffer":0,"byteOffset":6396,"byteLength":768,"target":34962,"byteStride":8},{"buffer":0,"byteOffset":7164,"byteLength":264,"target":34963},{"buffer":0,"byteOffset":7428,"byteLength":1344,"target":34962,"byteStride":12},{"buffer":0,"byteOffset":8772,"byteLength":1344,"target":34962,"byteStride":12},{"buffer":0,"byteOffset":10116,"byteLength":896,"target":34962,"byteStride":8},{"buffer":0,"byteOffset":11012,"byteLength":228,"target":34963},{"buffer":0,"byteOffset":11240,"byteLength":1152,"target":34962,"byteStride":12},{"buffer":0,"byteOffset":12392,"byteLength":1152,"target":34962,"byteStride":12},{"buffer":0,"byteOffset":13544,"byteLength":768,"target":34962,"byteStride":8},{"buffer":0,"byteOffset":14312,"byteLength":264,"target":34963},{"buffer":0,"byteOffset":14576,"byteLength":3024,"target":34962,"byteStride":12},{"buffer":0,"byteOffset":17600,"byteLength":3024,"target":34962,"byteStride":12},{"buffer":0,"byteOffset":20624,"byteLength":2016,"target":34962,"byteStride":8},{"buffer":0,"byteOffset":22640,"byteLength":672,"target":34963},{"buffer":0,"byteOffset":23312,"byteLength":1344,"target":34962,"byteStride":12},{"buffer":0,"byteOffset":24656,"byteLength":1344,"target":34962,"byteStride":12},{"buffer":0,"byteOffset":26000,"byteLength":896,"target":34962,"byteStride":8},{"buffer":0,"byteOffset":26896,"byteLength":228,"target":34963},{"buffer":0,"byteOffset":27124,"byteLength":1344,"target":34962,"byteStride":12},{"buffer":0,"byteOffset":28468,"byteLength":1344,"target":34962,"byteStride":12},{"buffer":0,"byteOffset":29812,"byteLength":896,"target":34962,"byteStride":8},{"buffer":0,"byteOffset":30708,"byteLength":228,"target":34963},{"buffer":0,"byteOffset":30936,"byteLength":1344,"target":34962,"byteStride":12},{"buffer":0,"byteOffset":32280,"byteLength":1344,"target":34962,"byteStride":12},{"buffer":0,"byteOffset":33624,"byteLength":896,"target":34962,"byteStride":8},{"buffer":0,"byteOffset":34520,"byteLength":228,"target":34963},{"buffer":0,"byteOffset":34748,"byteLength":48,"target":34962,"byteStride":12},{"buffer":0,"byteOffset":34796,"byteLength":48,"target":34962,"byteStride":12},{"buffer":0,"byteOffset":34844,"byteLength":32,"target":34962,"byteStride":8},{"buffer":0,"byteOffset":34876,"byteLength":12,"target":34963},{"buffer":0,"byteOffset":34888,"byteLength":288,"target":34962,"byteStride":12},{"buffer":0,"byteOffset":35176,"byteLength":288,"target":34962,"byteStride":12},{"buffer":0,"byteOffset":35464,"byteLength":192,"target":34962,"byteStride":8},{"buffer":0,"byteOffset":35656,"byteLength":72,"target":34963},{"buffer":0,"byteOffset":35728,"byteLength":288,"target":34962,"byteStride":12},{"buffer":0,"byteOffset":36016,"byteLength":288,"target":34962,"byteStride":12},{"buffer":0,"byteOffset":36304,"byteLength":192,"target":34962,"byteStride":8},{"buffer":0,"byteOffset":36496,"byteLength":72,"target":34963},{"buffer":0,"byteOffset":36568,"byteLength":288,"target":34962,"byteStride":12},{"buffer":0,"byteOffset":36856,"byteLength":288,"target":34962,"byteStride":12},{"buffer":0,"byteOffset":37144,"byteLength":192,"target":34962,"byteStride":8},{"buffer":0,"byteOffset":37336,"byteLength":72,"target":34963},{"buffer":0,"byteOffset":37408,"byteLength":288,"target":34962,"byteStride":12},{"buffer":0,"byteOffset":37696,"byteLength":288,"target":34962,"byteStride":12},{"buffer":0,"byteOffset":37984,"byteLength":192,"target":34962,"byteStride":8},{"buffer":0,"byteOffset":38176,"byteLength":72,"target":34963},{"buffer":0,"byteOffset":38248,"byteLength":168,"target":34962,"byteStride":12},{"buffer":0,"byteOffset":38416,"byteLength":168,"target":34962,"byteStride":12},{"buffer":0,"byteOffset":38584,"byteLength":112,"target":34962,"byteStride":8},{"buffer":0,"byteOffset":38696,"byteLength":36,"target":34963},{"buffer":0,"byteOffset":38732,"byteLength":288,"target":34962,"byteStride":12},{"buffer":0,"byteOffset":39020,"byteLength":288,"target":34962,"byteStride":12},{"buffer":0,"byteOffset":39308,"byteLength":192,"target":34962,"byteStride":8},{"buffer":0,"byteOffset":39500,"byteLength":72,"target":34963},{"buffer":0,"byteOffset":39572,"byteLength":288,"target":34962,"byteStride":12},{"buffer":0,"byteOffset":39860,"byteLength":288,"target":34962,"byteStride":12},{"buffer":0,"byteOffset":40148,"byteLength":192,"target":34962,"byteStride":8},{"buffer":0,"byteOffset":40340,"byteLength":72,"target":34963},{"buffer":0,"byteOffset":40412,"byteLength":168,"target":34962,"byteStride":12},{"buffer":0,"byteOffset":40580,"byteLength":168,"target":34962,"byteStride":12},{"buffer":0,"byteOffset":40748,"byteLength":112,"target":34962,"byteStride":8},{"buffer":0,"byteOffset":40860,"byteLength":36,"target":34963},{"buffer":0,"byteOffset":40896,"byteLength":48,"target":34962,"byteStride":12},{"buffer":0,"byteOffset":40944,"byteLength":48,"target":34962,"byteStride":12},{"buffer":0,"byteOffset":40992,"byteLength":32,"target":34962,"byteStride":8},{"buffer":0,"byteOffset":41024,"byteLength":12,"target":34963},{"buffer":0,"byteOffset":41036,"byteLength":48,"target":34962,"byteStride":12},{"buffer":0,"byteOffset":41084,"byteLength":48,"target":34962,"byteStride":12},{"buffer":0,"byteOffset":41132,"byteLength":32,"target":34962,"byteStride":8},{"buffer":0,"byteOffset":41164,"byteLength":12,"target":34963}],"buffers":[{"byteLength":41176,"uri":"data:application/octet-stream;base64,"}],"accessors":[{"bufferView":0,"componentType":5126,"count":4,"max":[8,0,8],"min":[-8,0,-8],"type":"VEC3"},{"bufferView":1,"componentType":5126,"count":4,"max":[0,1,0],"min":[0,1,0],"type":"VEC3"},{"bufferView":2,"componentType":5126,"count":4,"max":[1,1],"min":[0,0],"type":"VEC2"},{"bufferView":3,"componentType":5123,"count":6,"max":[3],"min":[0],"type":"SCALAR"},{"bufferView":4,"componentType":5126,"count":112,"max":[0.34150636196136475,0.4375,0.34150636196136475],"min":[-0.34150636196136475,-0.3062500059604645,-0.34150636196136475],"type":"VEC3"},{"bufferView":5,"componentType":5126,"count":112,"max":[0.7745966911315918,1,0.8944271802902222],"min":[-0.7745966911315918,-1,-0.8944271802902222],"type":"VEC3"},{"bufferView":6,"componentType":5126,"count":112,"max":[0.59375,0.75],"min":[0.03125,0],"type":"VEC2"},{"bufferView":7,"componentType":5123,"count":114,"max":[111],"min":[0],"type":"SCALAR"},{"bufferView":8,"componentType":5126,"count":4,"max":[0.375,0,0.375],"min":[-0.375,0,-0.375],"type":"VEC3"},{"bufferView":9,"componentType":5126,"count":4,"max":[0,1,0],"min":[0,1,0],"type":"VEC3"},{"bufferView":10,"componentType":5126,"count":4,"max":[0.375,0.75],"min":[0,0.375],"type":"VEC2"},{"bufferView":11,"componentType":5123,"count":6,"max":[3],"min":[0],"type":"SCALAR"},{"bufferView":12,"componentType":5126,"count":96,"max":[0.5,0.9375,0.5625],"min":[-0.5,0,-0.5625],"type":"VEC3"},{"bufferView":13,"componentType":5126,"count":96,"max":[0.9922778606414795,0.9299811124801636,0.9683640599250793],"min":[-1,-1,-0.9912062287330627],"type":"VEC3"},{"bufferView":14,"componentType":5126,"count":96,"max":[0.6556875109672546,0.6867499947547913],"min":[0.0006629126146435738,0.0007500052452087402],"type":"VEC2"},{"bufferView":15,"componentType":5123,"count":132,"max":[95],"min":[0],"type":"SCALAR"},{"bufferView":16,"componentType":5126,"count":112,"max":[0.34150636196136475,0.4375,0.34150636196136475],"min":[-0.34150636196136475,-0.3062500059604645,-0.34150636196136475],"type":"VEC3"},{"bufferView":17,"componentType":5126,"count":112,"max":[0.7745966911315918,1,0.8944271802902222],"min":[-0.7745966911315918,-1,-0.8944271802902222],"type":"VEC3"},{"bufferView":18,"componentType":5126,"count":112,"max":[0.59375,0.75],"min":[0.03125,0],"type":"VEC2"},{"bufferView":19,"componentType":5123,"count":114,"max":[111],"min":[0],"type":"SCALAR"},{"bufferView":20,"componentType":5126,"count":96,"max":[0.375,1.25,0.375],"min":[-0.375,0,-0.375],"type":"VEC3"},{"bufferView":21,"componentType":5126,"count":96,"max":[0.9829762578010559,0.9891005158424377,0.9853411912918091],"min":[-0.9980525970458984,-1,-0.9853411912918091],"type":"VEC3"},{"bufferView":22,"componentType":5126,"count":96,"max":[0.8584972023963928,0.9728193879127502],"min":[0.10957624763250351,0.00036525726318359375],"type":"VEC2"},{"bufferView":23,"componentType":5123,"count":132,"max":[95],"min":[0],"type":"SCALAR"},{"bufferView":24,"componentType":5126,"count":252,"max":[0.4375,0.9375,0.5625],"min":[-1.125,-0.0625,-0.7332531809806824],"type":"VEC3"},{"bufferView":25,"componentType":5126,"count":252,"max":[1,1,1],"min":[-1,-1,-1],"type":"VEC3"},{"bufferView":26,"componentType":5126,"count":252,"max":[0.7803404927253723,0.7337120771408081],"min":[0.0003481787571217865,0.00022739171981811523],"type":"VEC2"},{"bufferView":27,"componentType":5123,"count":336,"max":[251],"min":[0],"type":"SCALAR"},{"bufferView":28,"componentType":5126,"count":112,"max":[0.34150636196136475,0.4375,0.34150636196136475],"min":[-0.34150636196136475,-0.3062500059604645,-0.34150636196136475],"type":"VEC3"},{"bufferView":29,"componentType":5126,"count":112,"max":[0.7745966911315918,1,0.8944271802902222],"min":[-0.7745966911315918,-1,-0.8944271802902222],"type":"VEC3"},{"bufferView":30,"componentType":5126,"count":112,"max":[0.59375,0.75],"min":[0.03125,0],"type":"VEC2"},{"bufferView":31,"componentType":5123,"count":114,"max":[111],"min":[0],"type":"SCALAR"},{"bufferView":32,"componentType":5126,"count":112,"max":[0.34150636196136475,0.4375,0.34150636196136475],"min":[-0.34150636196136475,-0.3062500059604645,-0.34150636196136475],"type":"VEC3"},{"bufferView":33,"componentType":5126,"count":112,"max":[0.7745966911315918,1,0.8944271802902222],"min":[-0.7745966911315918,-1,-0.8944271802902222],"type":"VEC3"},{"bufferView":34,"componentType":5126,"count":112,"max":[0.59375,0.75],"min":[0.03125,0],"type":"VEC2"},{"bufferView":35,"componentType":5123,"count":114,"max":[111],"min":[0],"type":"SCALAR"},{"bufferView":36,"componentType":5126,"count":112,"max":[0.34150636196136475,0.4375,0.34150636196136475],"min":[-0.34150636196136475,-0.3062500059604645,-0.34150636196136475],"type":"VEC3"},{"bufferView":37,"componentType":5126,"count":112,"max":[0.7745966911315918,1,0.8944271802902222],"min":[-0.7745966911315918,-1,-0.8944271802902222],"type":"VEC3"},{"bufferView":38,"componentType":5126,"count":112,"max":[0.59375,0.75],"min":[0.03125,0],"type":"VEC2"},{"bufferView":39,"componentType":5123,"count":114,"max":[111],"min":[0],"type":"SCALAR"},{"bufferView":40,"componentType":5126,"count":4,"max":[0.1875,0,0.375],"min":[-0.1875,0,-0.375],"type":"VEC3"},{"bufferView":41,"componentType":5126,"count":4,"max":[0,1,0],"min":[0,1,0],"type":"VEC3"},{"bufferView":42,"componentType":5126,"count":4,"max":[0.5625,0.375],"min":[0.375,0],"type":"VEC2"},{"bufferView":43,"componentType":5123,"count":6,"max":[3],"min":[0],"type":"SCALAR"},{"bufferView":44,"componentType":5126,"count":24,"max":[0.25,0.4375,0.25],"min":[-0.25,0.0625,-0.25],"type":"VEC3"},{"bufferView":45,"componentType":5126,"count":24,"max":[1,1,1],"min":[-1,-1,-1],"type":"VEC3"},{"bufferView":46,"componentType":5126,"count":24,"max":[0.5,0.5],"min":[0,0],"type":"VEC2"},{"bufferView":47,"componentType":5123,"count":36,"max":[23],"min":[0],"type":"SCALAR"},{"bufferView":48,"componentType":5126,"count":24,"max":[0.25,0.375,0.03125],"min":[-0.25,0.125,-0.03125],"type":"VEC3"},{"bufferView":49,"componentType":5126,"count":24,"max":[1,1,1],"min":[-1,-1,-1],"type":"VEC3"},{"bufferView":50,"componentType":5126,"count":24,"max":[0.5,0.5],"min":[0,0],"type":"VEC2"},{"bufferView":51,"componentType":5123,"count":36,"max":[23],"min":[0],"type":"SCALAR"},{"bufferView":52,"componentType":5126,"count":24,"max":[0.6875,0.3125,0.9375],"min":[-0.0625,0,-0.0625],"type":"VEC3"},{"bufferView":53,"componentType":5126,"count":24,"max":[1,1,1],"min":[-1,-1,-1],"type":"VEC3"},{"bufferView":54,"componentType":5126,"count":24,"max":[0.874755859375,0.999755859375],"min":[0.000244140625,0.672119140625],"type":"VEC2"},{"bufferView":55,"componentType":5123,"count":36,"max":[23],"min":[0],"type":"SCALAR"},{"bufferView":56,"componentType":5126,"count":24,"max":[0.8125,0.4375,1.0625],"min":[-0.0625,0,-0.0625],"type":"VEC3"},{"bufferView":57,"componentType":5126,"count":24,"max":[1,1,1],"min":[-1,-1,-1],"type":"VEC3"},{"bufferView":58,"componentType":5126,"count":24,"max":[0.359375,0.34375],"min":[0,0],"type":"VEC2"},{"bufferView":59,"componentType":5123,"count":36,"max":[23],"min":[0],"type":"SCALAR"},{"bufferView":60,"componentType":5126,"count":14,"max":[0.5,0.375,0.75],"min":[-0.5,-1.1102230246251565e-16,-0.5],"type":"VEC3"},{"bufferView":61,"componentType":5126,"count":14,"max":[0.6000000238418579,0.800000011920929,1],"min":[-0.6000000238418579,-1.4802974102831747e-16,-1],"type":"VEC3"},{"bufferView":62,"componentType":5126,"count":14,"max":[0.984375,0.1875],"min":[0.40625,0.015625],"type":"VEC2"},{"bufferView":63,"componentType":5123,"count":18,"max":[13],"min":[0],"type":"SCALAR"},{"bufferView":64,"componentType":5126,"count":24,"max":[0.1875,1.25,0.125],"min":[-0.0625,0,-0.0625],"type":"VEC3"},{"bufferView":65,"componentType":5126,"count":24,"max":[1,1,1],"min":[-1,-1,-1],"type":"VEC3"},{"bufferView":66,"componentType":5126,"count":24,"max":[0.859130859375,0.906005859375],"min":[0.640869140625,0.547119140625],"type":"VEC2"},{"bufferView":67,"componentType":5123,"count":36,"max":[23],"min":[0],"type":"SCALAR"},{"bufferView":68,"componentType":5126,"count":24,"max":[0.6875,0.4375,0.4375],"min":[-0.0625,0,-0.0625],"type":"VEC3"},{"bufferView":69,"componentType":5126,"count":24,"max":[1,1,1],"min":[-1,-1,-1],"type":"VEC3"},{"bufferView":70,"componentType":5126,"count":24,"max":[0.624755859375,0.656005859375],"min":[0.000244140625,0.422119140625],"type":"VEC2"},{"bufferView":71,"componentType":5123,"count":36,"max":[23],"min":[0],"type":"SCALAR"},{"bufferView":72,"componentType":5126,"count":14,"max":[0.5,0.25,-0.0625],"min":[-0.5,-1.1102230246251565e-16,-0.5],"type":"VEC3"},{"bufferView":73,"componentType":5126,"count":14,"max":[0.4472135901451111,0.8944271802902222,1],"min":[-0.4472135901451111,-2.220446049250313e-16,-1],"type":"VEC3"},{"bufferView":74,"componentType":5126,"count":14,"max":[0.65625,0.3741297125816345],"min":[0,0.078125],"type":"VEC2"},{"bufferView":75,"componentType":5123,"count":18,"max":[13],"min":[0],"type":"SCALAR"},{"bufferView":76,"componentType":5126,"count":4,"max":[0.1875,0,0.375],"min":[-0.1875,0,-0.375],"type":"VEC3"},{"bufferView":77,"componentType":5126,"count":4,"max":[0,1,0],"min":[0,1,0],"type":"VEC3"},{"bufferView":78,"componentType":5126,"count":4,"max":[0.5625,0.375],"min":[0.375,0],"type":"VEC2"},{"bufferView":79,"componentType":5123,"count":6,"max":[3],"min":[0],"type":"SCALAR"},{"bufferView":80,"componentType":5126,"count":4,"max":[5.551115123125783e-17,0.375,0.375],"min":[-5.551115123125783e-17,-0.375,-0.375],"type":"VEC3"},{"bufferView":81,"componentType":5126,"count":4,"max":[-1,1.4802974102831747e-16,0],"min":[-1,1.4802974102831747e-16,0],"type":"VEC3"},{"bufferView":82,"componentType":5126,"count":4,"max":[0.375,0.375],"min":[0,0],"type":"VEC2"},{"bufferView":83,"componentType":5123,"count":6,"max":[3],"min":[0],"type":"SCALAR"}],"materials":[{"pbrMetallicRoughness":{"metallicFactor":0,"roughnessFactor":1,"baseColorTexture":{"index":0}},"alphaMode":"MASK","alphaCutoff":0.05,"doubleSided":true},{"pbrMetallicRoughness":{"metallicFactor":0,"roughnessFactor":1,"baseColorTexture":{"index":1}},"alphaMode":"MASK","alphaCutoff":0.05,"doubleSided":true},{"pbrMetallicRoughness":{"metallicFactor":0,"roughnessFactor":1,"baseColorTexture":{"index":2}},"alphaMode":"MASK","alphaCutoff":0.05,"doubleSided":true},{"pbrMetallicRoughness":{"metallicFactor":0,"roughnessFactor":1,"baseColorTexture":{"index":3}},"alphaMode":"MASK","alphaCutoff":0.05,"doubleSided":true},{"pbrMetallicRoughness":{"metallicFactor":0,"roughnessFactor":1,"baseColorTexture":{"index":4}},"alphaMode":"MASK","alphaCutoff":0.05,"doubleSided":true},{"pbrMetallicRoughness":{"metallicFactor":0,"roughnessFactor":1},"alphaMode":"MASK","alphaCutoff":0.05,"doubleSided":true},{"pbrMetallicRoughness":{"metallicFactor":0,"roughnessFactor":1,"baseColorTexture":{"index":5}},"alphaMode":"MASK","alphaCutoff":0.05,"doubleSided":true}],"textures":[{"sampler":0,"source":0,"name":"ground.png"},{"sampler":1,"source":1,"name":"pine.png"},{"sampler":2,"source":2,"name":"wizard.png"},{"sampler":3,"source":3,"name":"cave.png"},{"sampler":4,"source":4,"name":"waterfall.png"},{"sampler":5,"source":5,"name":"house.png"}],"samplers":[{"magFilter":9728,"minFilter":9728,"wrapS":33071,"wrapT":33071},{"magFilter":9728,"minFilter":9728,"wrapS":33071,"wrapT":33071},{"magFilter":9728,"minFilter":9728,"wrapS":33071,"wrapT":33071},{"magFilter":9728,"minFilter":9728,"wrapS":33071,"wrapT":33071},{"magFilter":9728,"minFilter":9728,"wrapS":33071,"wrapT":33071},{"magFilter":9728,"minFilter":9728,"wrapS":33071,"wrapT":33071}],"images":[{"mimeType":"image/png","uri":"data:image/png;base64,"},{"mimeType":"image/png","uri":"data:image/png;base64,"},{"mimeType":"image/png","uri":"data:image/png;base64,"},{"mimeType":"image/png","uri":"data:image/png;base64,"},{"mimeType":"image/png","uri":"data:image/png;base64,"},{"mimeType":"image/png","uri":"data:image/png;base64,"}],"meshes":[{"primitives":[{"mode":4,"attributes":{"POSITION":0,"NORMAL":1,"TEXCOORD_0":2},"indices":3,"material":0}]},{"primitives":[{"mode":4,"attributes":{"POSITION":4,"NORMAL":5,"TEXCOORD_0":6},"indices":7,"material":1}]},{"primitives":[{"mode":4,"attributes":{"POSITION":8,"NORMAL":9,"TEXCOORD_0":10},"indices":11,"material":2}]},{"primitives":[{"mode":4,"attributes":{"POSITION":12,"NORMAL":13,"TEXCOORD_0":14},"indices":15,"material":3}]},{"primitives":[{"mode":4,"attributes":{"POSITION":16,"NORMAL":17,"TEXCOORD_0":18},"indices":19,"material":1}]},{"primitives":[{"mode":4,"attributes":{"POSITION":20,"NORMAL":21,"TEXCOORD_0":22},"indices":23,"material":3}]},{"primitives":[{"mode":4,"attributes":{"POSITION":24,"NORMAL":25,"TEXCOORD_0":26},"indices":27,"material":4}]},{"primitives":[{"mode":4,"attributes":{"POSITION":28,"NORMAL":29,"TEXCOORD_0":30},"indices":31,"material":1}]},{"primitives":[{"mode":4,"attributes":{"POSITION":32,"NORMAL":33,"TEXCOORD_0":34},"indices":35,"material":1}]},{"primitives":[{"mode":4,"attributes":{"POSITION":36,"NORMAL":37,"TEXCOORD_0":38},"indices":39,"material":1}]},{"primitives":[{"mode":4,"attributes":{"POSITION":40,"NORMAL":41,"TEXCOORD_0":42},"indices":43,"material":2}]},{"primitives":[{"mode":4,"attributes":{"POSITION":44,"NORMAL":45,"TEXCOORD_0":46},"indices":47,"material":5}]},{"primitives":[{"mode":4,"attributes":{"POSITION":48,"NORMAL":49,"TEXCOORD_0":50},"indices":51,"material":5}]},{"primitives":[{"mode":4,"attributes":{"POSITION":52,"NORMAL":53,"TEXCOORD_0":54},"indices":55,"material":6}]},{"primitives":[{"mode":4,"attributes":{"POSITION":56,"NORMAL":57,"TEXCOORD_0":58},"indices":59,"material":6}]},{"primitives":[{"mode":4,"attributes":{"POSITION":60,"NORMAL":61,"TEXCOORD_0":62},"indices":63,"material":6}]},{"primitives":[{"mode":4,"attributes":{"POSITION":64,"NORMAL":65,"TEXCOORD_0":66},"indices":67,"material":6}]},{"primitives":[{"mode":4,"attributes":{"POSITION":68,"NORMAL":69,"TEXCOORD_0":70},"indices":71,"material":6}]},{"primitives":[{"mode":4,"attributes":{"POSITION":72,"NORMAL":73,"TEXCOORD_0":74},"indices":75,"material":6}]},{"primitives":[{"mode":4,"attributes":{"POSITION":76,"NORMAL":77,"TEXCOORD_0":78},"indices":79,"material":2}]},{"primitives":[{"mode":4,"attributes":{"POSITION":80,"NORMAL":81,"TEXCOORD_0":82},"indices":83,"material":2}]}]}